<svg version="1.1" id="Layer_1" xmlns="http://www.w3.org/2000/svg" xmlns:xlink="http://www.w3.org/1999/xlink" x="0px" y="0px"
	 width="100%" viewBox="0 0 128 128" enable-background="new 0 0 128 128" xml:space="preserve">
<path fill="#F88C49" opacity="1.000000" stroke="none" 
	d="
M129.000000,63.000000 
	C129.000000,84.946701 129.000000,106.893402 129.000000,129.000000 
	C90.979248,129.000000 52.958279,129.000000 14.707009,128.578979 
	C14.320807,127.522812 14.039664,126.890083 14.027235,126.252121 
	C13.668549,107.842148 13.193051,89.432755 13.050725,71.020836 
	C12.954432,58.564079 18.017672,47.794804 25.996771,38.660206 
	C40.330799,22.250387 59.201786,16.382101 80.168732,19.228645 
	C102.727325,22.291279 120.941109,38.437420 127.044968,60.635620 
	C127.292252,61.534946 128.330353,62.216816 129.000000,63.000000 
M51.042889,73.577904 
	C60.598454,79.085930 70.767021,77.645012 73.886932,69.690338 
	C64.017120,74.595413 55.067600,72.340614 46.463619,66.646614 
	C46.312160,67.080154 46.160706,67.513695 46.009251,67.947235 
	C47.498177,69.668999 48.987106,71.390762 51.042889,73.577904 
M47.293259,45.083557 
	C45.930653,48.935421 44.849594,52.838497 47.846130,56.378464 
	C48.271534,56.881023 50.704739,56.647846 50.816879,56.302822 
	C51.953049,52.807224 53.609421,49.195553 53.513500,45.660019 
	C53.404465,41.641247 50.988346,41.311459 47.293259,45.083557 
M79.014984,49.185459 
	C78.024117,48.031826 77.033249,46.878197 76.042381,45.724560 
	C74.891388,46.783802 73.132812,47.649239 72.719864,48.943893 
	C71.935883,51.401741 71.576248,54.126137 71.730583,56.698406 
	C71.811409,58.045502 73.355942,59.304779 74.239441,60.603718 
	C75.461380,59.657509 77.330299,58.942387 77.768280,57.716167 
	C78.634811,55.290112 78.710342,52.581535 79.014984,49.185459 
z"/>
<path fill="#000000" opacity="1.000000" stroke="none" 
	d="
M129.000000,62.531342 
	C128.330353,62.216816 127.292252,61.534946 127.044968,60.635620 
	C120.941109,38.437420 102.727325,22.291279 80.168732,19.228645 
	C59.201786,16.382101 40.330799,22.250387 25.996771,38.660206 
	C18.017672,47.794804 12.954432,58.564079 13.050725,71.020836 
	C13.193051,89.432755 13.668549,107.842148 14.027235,126.252121 
	C14.039664,126.890083 14.320807,127.522812 14.238352,128.578979 
	C9.672400,129.000000 5.344801,129.000000 1.012901,129.000000 
	C1.008601,86.395523 1.008601,43.791050 1.008601,1.093287 
	C43.547836,1.093287 86.095947,1.093287 129.000000,1.093287 
	C129.000000,21.352844 129.000000,41.707764 129.000000,62.531342 
z"/>
<path fill="#FEF5F0" opacity="1.000000" stroke="none" 
	d="
M50.759460,73.345215 
	C48.987106,71.390762 47.498177,69.668999 46.009251,67.947235 
	C46.160706,67.513695 46.312160,67.080154 46.463619,66.646614 
	C55.067600,72.340614 64.017120,74.595413 73.886932,69.690338 
	C70.767021,77.645012 60.598454,79.085930 50.759460,73.345215 
z"/>
<path fill="#FFF9F6" opacity="1.000000" stroke="none" 
	d="
M47.498047,44.751629 
	C50.988346,41.311459 53.404465,41.641247 53.513500,45.660019 
	C53.609421,49.195553 51.953049,52.807224 50.816879,56.302822 
	C50.704739,56.647846 48.271534,56.881023 47.846130,56.378464 
	C44.849594,52.838497 45.930653,48.935421 47.498047,44.751629 
z"/>
<path fill="#FEF8F3" opacity="1.000000" stroke="none" 
	d="
M79.063934,49.587608 
	C78.710342,52.581535 78.634811,55.290112 77.768280,57.716167 
	C77.330299,58.942387 75.461380,59.657509 74.239441,60.603718 
	C73.355942,59.304779 71.811409,58.045502 71.730583,56.698406 
	C71.576248,54.126137 71.935883,51.401741 72.719864,48.943893 
	C73.132812,47.649239 74.891388,46.783802 76.042381,45.724564 
	C77.033249,46.878197 78.024117,48.031826 79.063934,49.587608 
z"/>
</svg>